<?xml version="1.0" encoding="UTF-8" standalone="no"?>
<!-- Created with Inkscape (http://www.inkscape.org/) -->

<svg
   width="100mm"
   height="100mm"
   viewBox="0 0 100 100"
   version="1.1"
   id="svg5"
   xml:space="preserve"
   sodipodi:docname="icon_inactive.svg"
   inkscape:version="1.2.2 (b0a84865, 2022-12-01)"
   xmlns:inkscape="http://www.inkscape.org/namespaces/inkscape"
   xmlns:sodipodi="http://sodipodi.sourceforge.net/DTD/sodipodi-0.dtd"
   xmlns="http://www.w3.org/2000/svg"
   xmlns:svg="http://www.w3.org/2000/svg"><sodipodi:namedview
     id="namedview770"
     pagecolor="#ffffff"
     bordercolor="#000000"
     borderopacity="0.25"
     inkscape:showpageshadow="2"
     inkscape:pageopacity="0.0"
     inkscape:pagecheckerboard="0"
     inkscape:deskcolor="#d1d1d1"
     inkscape:document-units="mm"
     showgrid="false"
     inkscape:zoom="1.2488333"
     inkscape:cx="21.620179"
     inkscape:cy="74.869881"
     inkscape:window-width="1728"
     inkscape:window-height="999"
     inkscape:window-x="0"
     inkscape:window-y="38"
     inkscape:window-maximized="0"
     inkscape:current-layer="svg5" /><defs
     id="defs2" /><path
     id="path622"
     style="fill:#000000;stroke-width:0.349253"
     d="M 15.652791 12.649357 C 15.415175 12.6411 15.272649 12.686572 15.124141 12.744442 C 14.340104 13.049964 13.850831 13.524003 13.551628 14.267346 C 13.117225 15.346597 13.117015 15.346736 25.406718 45.466475 C 37.025345 73.941542 37.742892 75.609465 38.550618 76.006213 C 39.746207 76.59346 41.023034 76.352092 41.860494 75.380412 C 42.249697 74.92881 44.037041 71.873944 45.832861 68.592196 C 47.628684 65.310447 49.244896 62.695411 49.423857 62.781181 C 49.602824 62.866925 54.215216 67.452195 59.673877 72.970223 C 65.132524 78.488256 69.994947 83.190823 70.479419 83.420231 L 70.479419 83.419714 C 71.011771 83.671809 71.775031 83.675664 72.407983 83.429016 C 73.617095 82.957851 83.013657 73.537693 83.310677 72.498934 C 83.417244 72.126222 83.363947 71.455913 83.193888 71.008586 C 83.02316 70.56153 78.44791 65.620866 73.027067 60.029411 C 67.606218 54.437943 63.040558 49.671377 62.8804 49.437292 C 62.647371 49.096457 63.883452 48.297506 69.084672 45.427201 C 75.11161 42.101202 75.609439 41.762651 75.988127 40.733948 C 76.225886 40.088179 76.229138 39.203251 75.995361 38.614697 C 75.650441 37.74633 74.71559 37.22886 69.348222 34.934819 C 23.64234 15.399938 17.316104 12.707158 15.652791 12.649357 z M 22.211047 21.46484 C 29.039796 24.273452 41.72708 29.686313 66.187691 40.140702 C 66.178309 40.14588 66.181081 40.145328 66.171672 40.150521 C 63.540701 41.602427 61.916175 42.515885 60.671749 43.320353 C 60.049535 43.722588 59.546825 44.004434 58.714762 44.853593 C 58.298731 45.278172 57.702223 45.840955 57.197026 47.244145 C 56.691827 48.647334 56.867573 51.320793 57.906026 52.839669 C 58.454261 53.640956 58.363662 53.432348 58.451213 53.531099 C 58.538763 53.629851 58.616629 53.716171 58.707011 53.814286 C 58.887776 54.010517 59.111754 54.247495 59.388623 54.540857 C 59.94236 55.12758 60.703228 55.926436 61.628796 56.892651 C 63.479934 58.825081 65.983676 61.421413 68.701233 64.224504 C 71.383959 66.991666 73.858719 69.601606 75.656364 71.54292 C 75.772136 71.667944 75.817591 71.722185 75.927665 71.84161 C 75.274382 72.529271 74.678683 73.172812 73.933472 73.920036 C 73.081607 74.7742 72.310975 75.501122 71.539303 76.232556 C 71.379954 76.079435 71.300847 76.009662 71.131059 75.8455 C 69.21795 73.995773 66.660733 71.463478 63.958887 68.732239 C 61.219718 65.96328 58.693733 63.428688 56.818237 61.564201 C 55.88049 60.631958 55.106496 59.870078 54.535173 59.314209 C 54.249511 59.036274 54.018181 58.81249 53.814286 58.621228 C 53.712339 58.525597 53.621951 58.443243 53.493892 58.33029 C 53.429862 58.273814 53.363038 58.211676 53.228276 58.10343 C 53.093512 57.995183 53.255491 57.934276 52.027315 57.345854 C 50.278955 56.508697 48.574952 56.735251 47.656006 57.013574 C 46.736719 57.292 46.288636 57.602918 45.953267 57.834196 C 45.28253 58.296753 45.075002 58.556566 44.878914 58.767472 C 44.486739 59.189286 44.327912 59.422123 44.14821 59.67181 C 43.788802 60.171184 43.474797 60.661067 43.107446 61.255693 C 42.372745 62.444945 41.486474 63.982299 40.546879 65.699349 C 40.486719 65.809288 40.439064 65.886579 40.378931 65.995972 C 38.591275 61.769439 36.142033 55.825532 30.986222 43.189612 C 25.920779 30.775167 23.896501 25.740604 22.211047 21.46484 z " /></svg>
