<?xml version="1.0" encoding="UTF-8" standalone="no"?>
<!-- Created with Inkscape (http://www.inkscape.org/) -->

<svg
   width="100mm"
   height="100mm"
   viewBox="0 0 100 100"
   version="1.1"
   id="svg5"
   xml:space="preserve"
   sodipodi:docname="icon.svg"
   inkscape:version="1.2.2 (b0a84865, 2022-12-01)"
   xmlns:inkscape="http://www.inkscape.org/namespaces/inkscape"
   xmlns:sodipodi="http://sodipodi.sourceforge.net/DTD/sodipodi-0.dtd"
   xmlns="http://www.w3.org/2000/svg"
   xmlns:svg="http://www.w3.org/2000/svg"><sodipodi:namedview
     id="namedview770"
     pagecolor="#ffffff"
     bordercolor="#000000"
     borderopacity="0.25"
     inkscape:showpageshadow="2"
     inkscape:pageopacity="0.0"
     inkscape:pagecheckerboard="0"
     inkscape:deskcolor="#d1d1d1"
     inkscape:document-units="mm"
     showgrid="false"
     inkscape:zoom="1.2488333"
     inkscape:cx="21.620179"
     inkscape:cy="74.869881"
     inkscape:window-width="1728"
     inkscape:window-height="999"
     inkscape:window-x="0"
     inkscape:window-y="38"
     inkscape:window-maximized="0"
     inkscape:current-layer="svg5" /><defs
     id="defs2" /><path
     d="m 20.865995,60.583453 v 0 c -3.0414,-0.497278 -5.318288,2.113284 -4.439474,5.114067 1.017683,4.065668 3.079112,7.870742 6.179374,11.180804 3.100264,3.310063 6.762396,5.615872 10.75283,6.897226 2.936895,1.073143 5.690745,-1.028181 5.393405,-4.095581 v 0 c -0.158473,-2.002512 -1.594308,-3.764609 -3.587117,-4.288041 -2.345588,-0.670994 -4.591525,-2.1523 -6.499379,-4.189262 -1.907853,-2.036961 -3.119902,-4.247647 -3.755333,-6.759402 -0.625628,-2.042938 -2.170869,-3.46357 -4.044306,-3.859811 z"
     id="path499"
     style="stroke-width:1.65304" /><path
     d="M 19.926318,79.149065 C 14.441235,73.2928 11.262475,66.232372 10.648154,59.15998 10.370442,57.030151 8.5818264,55.1205 6.3602047,54.81138 3.6715859,54.461671 1.4992445,56.496325 1.7916564,59.329374 c 1.0063762,9.095123 4.9251139,18.091401 11.9603286,25.602698 7.035216,7.511298 15.756011,12.009891 24.76585,13.608794 2.807868,0.477033 4.98021,-1.557622 4.807229,-4.263162 -0.163396,-2.236861 -1.952021,-4.146527 -4.058915,-4.563106 -7.017091,-1.07545 -13.854563,-4.709066 -19.339636,-10.565324 z"
     id="path501"
     style="stroke-width:1.65304" /><path
     style="fill:#000000;stroke-width:0.349253"
     d="M 70.479559,83.419979 C 69.995087,83.190571 65.132504,78.488116 59.673851,72.970077 54.215185,67.452044 49.602575,62.867108 49.423607,62.781364 c -0.178961,-0.08577 -1.794696,2.529145 -3.59052,5.810897 -1.795822,3.281752 -3.583587,6.336306 -3.97279,6.787908 -0.837461,0.971681 -2.113894,1.213049 -3.309484,0.625802 C 37.743086,75.609222 37.025347,73.941623 25.406708,45.466528 13.116993,15.346758 13.116993,15.346758 13.551396,14.267506 c 0.299204,-0.743344 0.788698,-1.217312 1.572736,-1.522835 1.188058,-0.462962 1.988727,-0.135298 54.224073,22.190302 5.367374,2.294044 6.30198,2.811449 6.646901,3.679817 0.233777,0.588554 0.23096,1.473325 -0.0068,2.119094 -0.378688,1.028704 -0.876673,1.367245 -6.903617,4.693248 -5.201225,2.870308 -6.437538,3.669383 -6.204509,4.010219 0.160159,0.234085 4.726256,5.000477 10.14711,10.59195 5.420848,5.591461 9.995786,10.532063 10.166515,10.979119 0.170059,0.447328 0.223244,1.117755 0.116677,1.490467 -0.29702,1.03876 -9.693571,10.458899 -10.902684,10.930065 -0.632953,0.246648 -1.395911,0.243095 -1.928264,-0.009 z"
     id="path622"
     sodipodi:nodetypes="sscscsssssssscscsss" /><path
     d="m 62.08384,19.886303 v 0 c -0.297348,-3.067405 2.456509,-5.168728 5.393401,-4.095577 3.990426,1.281345 7.65257,3.58716 10.752833,6.897223 3.100263,3.310062 5.161679,7.11513 6.179371,11.180807 0.878817,3.000775 -1.398079,5.611335 -4.43947,5.114062 v 0 C 77.982112,38.693752 76.317666,37.14577 75.925659,35.122999 75.409468,32.738558 74.078187,30.40057 72.170333,28.363609 70.26248,26.326648 68.135776,24.972645 65.670948,24.174335 63.673292,23.416462 62.356733,21.781643 62.08384,19.886303 Z"
     id="path624"
     style="stroke-width:1.65304" /><path
     d="M 80.671162,20.162583 C 75.18608,14.306317 68.348614,10.6727 61.331521,9.5972548 59.224412,9.1808724 57.435797,7.2712203 57.272605,5.0341395 57.09944,2.3284082 59.271786,0.29375403 62.079655,0.77078171 71.089508,2.3697078 79.8103,6.8682962 86.845514,14.379594 c 7.035214,7.511298 10.953957,16.507579 11.960318,25.602681 0.292414,2.833053 -1.87993,4.867707 -4.568369,4.518189 C 92.016069,44.191163 90.227442,42.281495 89.949516,40.151873 89.335195,33.079475 86.15643,26.019048 80.671358,20.162791 Z"
     id="path626"
     style="stroke-width:1.65304" /></svg>
